<?xml version="1.0" encoding="UTF-8" standalone="no"?>
<!-- Created with Inkscape (http://www.inkscape.org/) -->

<svg
   width="118.27888"
   height="63.811954"
   viewBox="0 0 118.27887 63.811951"
   version="1.1"
   id="svg53352"
   xmlns="http://www.w3.org/2000/svg"
   xmlns:svg="http://www.w3.org/2000/svg">
  <defs
     id="defs53349" />
  <g
     id="layer1"
     transform="translate(982.23363,-1010.9849)">
    <g
       aria-label="AI"
       id="text63484"
       style="font-size:170.667px;font-family:serif;-inkscape-font-specification:'serif, Normal';fill:#ffffff;fill-opacity:0.996795;stroke:#000000;stroke-linecap:round;stroke-dasharray:3, 3;stroke-opacity:0.989637">
      <path
         id="path74724"
         style="font-size:170.667px;font-family:serif;-inkscape-font-specification:'serif, Normal';fill:#fffcf5;fill-opacity:0.996795;stroke:#000000;stroke-width:6;stroke-linecap:round;stroke-dasharray:none;stroke-opacity:0.989637;paint-order:stroke markers fill"
         d="m -948.48172,1020.7423 -12.16992,28.4726 c -3.44445,8.1667 -6.58268,13.5833 -9.41602,16.25 -1.38887,1.3334 -4.4438,2.4167 -9.16601,3.25 v 3.082 h 35.58203 v -3.082 c -5.44444,-0.3889 -8.99935,-1.2222 -10.66602,-2.5 -1.61109,-1.3333 -2.41601,-2.8618 -2.41601,-4.584 0,-2.1667 0.94314,-5.4451 2.83203,-9.834 l 4.29833,-10.0453 42.67667,-7e-4 c 2.27735,5.4167 1.27653,3.0466 3.55387,8.4633 1.7458,4.1836 5.64312,11.6131 0.91797,16.25 -1.55556,1.2778 -4.58398,2.0278 -9.08398,2.25 v 3.082 h 44.58398 v -3.082 c -4.61111,-0.2778 -8.22288,-1.5278 -10.83398,-3.75 -2.55556,-2.2778 -5.41733,-7.1944 -8.58399,-14.75 l -12.2539,-29.2871 c -2.84129,-7.469 -1.76311,-6.9194 -9.29915,-6.9359 l -29.78637,0.015 c -5.95871,0 -8.72338,1.9492 -10.76953,6.7364 z m 4.84958,7.0546 31.01818,-7e-4 3.38875,8.3148 -37.9648,7e-4 z" />
      <path
         id="path74726"
         style="font-size:170.667px;font-family:serif;-inkscape-font-specification:'serif, Normal';fill:#56ff67;fill-opacity:0.996078;stroke:#00ff00;stroke-width:3;stroke-linecap:round;stroke-dasharray:none;stroke-dashoffset:0;stroke-opacity:0"
         d="m -966.97683,1061.6302 c -1.06722,1.6085 -2.09953,2.9001 -3.0918,3.834 -1.38889,1.3333 -4.44379,2.4167 -9.16601,3.25 v 3.084 h 35.58398 v -3.084 c -5.44445,-0.3889 -8.99935,-1.2222 -10.66602,-2.5 -1.6111,-1.3333 -2.41796,-2.8618 -2.41796,-4.584 0,0 -1.98201,-0.3906 -2.97954,-0.3312 -1.52858,0.091 -2.94197,1.0624 -4.47318,1.0462 -0.95982,-0.01 -2.78947,-0.715 -2.78947,-0.715 z" />
      <path
         id="path74728"
         style="font-size:170.667px;font-family:serif;-inkscape-font-specification:'serif, Normal';fill:#b556ff;fill-opacity:0.996078;stroke:#ff00ff;stroke-width:3;stroke-linecap:round;stroke-dasharray:none;stroke-dashoffset:0;stroke-opacity:0"
         d="m -898.90435,1061.3956 c -0.16558,0.034 -1.35064,0.5867 -1.38619,0.7396 -0.41381,1.78 -0.73373,2.7255 -2.1662,4.329 -1.55556,1.2778 -4.58203,2.0278 -9.08204,2.25 v 3.084 h 44.58204 v -3.084 c -4.61112,-0.2778 -8.22092,-1.5278 -10.83204,-3.75 -0.95756,-0.8535 -2.29306,-2.5984 -3.33643,-4.1929 0,0 -4.70904,0.8794 -7.09331,0.9362 -2.89366,0.069 -5.76358,-0.8941 -8.65312,-0.725 -0.69024,0.04 -2.03271,0.4131 -2.03271,0.4131 z" />
    </g>
  </g>
</svg>
