<?xml version="1.0" encoding="UTF-8" standalone="no"?>
<!-- Created with Inkscape (http://www.inkscape.org/) -->

<svg
   width="100%"
   height="100%"
   viewBox="0 0 48 48"
   version="1.1"
   id="svg5"
   inkscape:version="1.2.1 (9c6d41e, 2022-07-14)"
   sodipodi:docname="pen_circle.svg"
   xmlns:inkscape="http://www.inkscape.org/namespaces/inkscape"
   xmlns:sodipodi="http://sodipodi.sourceforge.net/DTD/sodipodi-0.dtd"
   xmlns="http://www.w3.org/2000/svg"
   xmlns:svg="http://www.w3.org/2000/svg">
  <sodipodi:namedview
     id="namedview7"
     pagecolor="#ffffff"
     bordercolor="#999999"
     borderopacity="1"
     inkscape:showpageshadow="false"
     inkscape:pageopacity="0"
     inkscape:pagecheckerboard="false"
     inkscape:deskcolor="#d1d1d1"
     inkscape:document-units="px"
     showgrid="true"
     inkscape:zoom="9.0416667"
     inkscape:cx="18.138249"
     inkscape:cy="16.81106"
     inkscape:window-width="1150"
     inkscape:window-height="654"
     inkscape:window-x="110"
     inkscape:window-y="32"
     inkscape:window-maximized="0"
     inkscape:current-layer="layer1"
     inkscape:lockguides="false"
     showguides="true"
     showborder="false"
     borderlayer="true"
     shape-rendering="auto">
    <inkscape:grid
       type="xygrid"
       id="grid2760"
       empspacing="2"
       spacingx="1"
       originx="0"
       originy="0" />
  </sodipodi:namedview>
  <defs
     id="defs2" />
  <g
     inkscape:label="Layer 1"
     inkscape:groupmode="layer"
     id="layer1">
    <path
       style="fill:#000000;stroke-width:0.0577518"
       id="path1277"
       d="M 34.218787,33.531978 C 30.358114,32.644895 26.400868,32.77359 22.528334,32.001649 21.049212,31.706807 19.595191,31.241338 18.12862,30.861172 14.456612,29.457046 10.433019,27.891089 8.013321,23.839475 6.9718762,22.095652 6.3968682,19.903341 6.9903682,17.751558 c 0.287188,-1.04122 0.9684988,-1.841042 1.4527478,-2.761566 0.9109489,-0.789437 1.749631,-1.727996 2.732851,-2.368315 5.18517,-3.3768066 12.014269,-4.0921027 17.764786,-3.7358856 1.534393,0.09506 3.061674,0.322542 4.592512,0.483816 2.208715,0.5875882 6.524576,1.0850696 7.713711,4.2244906 1.124895,2.969821 -1.203066,7.43484 -2.187503,9.805399 -2.538985,4.802746 -5.413599,9.313748 -8.43056,13.658875 -0.982978,1.415724 -2.343198,3.353762 -3.552485,4.650264 -0.136732,0.146582 -0.312813,0.223688 -0.469221,0.335527 -0.110721,0.06572 0.633777,2.019919 0.744501,1.954217 v 0 c 0.449293,-0.0645 0.924186,0.0039 1.347872,-0.19342 1.727461,-0.80488 3.562525,-2.734605 4.814988,-4.227372 3.568414,-4.253024 6.472341,-9.245007 8.597601,-14.802803 1.017496,-3.43095 1.972078,-5.517213 1.881913,-9.211121 C 43.887835,11.210813 41.828475,8.4334424 38.775062,6.6831262 37.508316,5.9569852 36.126819,5.5954442 34.802697,5.0516062 33.17587,4.7399842 31.564908,4.2443932 29.92221,4.1167452 23.009945,3.5796231 14.648683,4.7900862 8.846706,9.9691777 7.7238602,10.971475 6.8399723,12.335838 5.8366052,13.51917 c -0.5322208,1.371359 -1.2986639,2.636413 -1.5966598,4.114086 -0.963691,4.778623 1.0992439,9.414333 3.9761356,12.382983 1.173393,1.210826 2.510328,2.181382 3.885681,2.996482 1.465508,0.868516 3.058958,1.350435 4.588435,2.02565 1.605473,0.333369 3.196903,0.798601 4.816417,1.000089 4.128285,0.513609 8.284882,-0.182238 12.371395,-0.850083 0.09384,0.03001 0.434627,-1.626325 0.340778,-1.656399 z" />
  </g>
</svg>
