<?xml version="1.0" encoding="UTF-8" standalone="no"?>
<!-- Created with Inkscape (http://www.inkscape.org/) -->

<svg
   width="115.27998"
   height="60.811954"
   viewBox="0 0 115.27997 60.811952"
   version="1.1"
   id="svg53352"
   xmlns="http://www.w3.org/2000/svg"
   xmlns:svg="http://www.w3.org/2000/svg">
  <defs
     id="defs53349" />
  <g
     id="layer1"
     transform="translate(1131.6795,-1013.164)">
    <g
       aria-label="AI"
       id="text63484"
       style="font-size:170.667px;font-family:serif;-inkscape-font-specification:'serif, Normal';fill:#ffffff;fill-opacity:0.996795;stroke:#000000;stroke-linecap:round;stroke-dasharray:3, 3;stroke-opacity:0.989637">
      <path
         id="path373"
         style="font-size:170.667px;font-family:serif;-inkscape-font-specification:'serif, Normal';fill:#fffcf5;fill-opacity:0.996795;stroke:#000000;stroke-width:6;stroke-linecap:round;stroke-dasharray:none;stroke-opacity:0.989637;paint-order:stroke markers fill"
         d="m -1111.5964,1049.8927 c -3.4444,8.1667 -6.5826,13.5833 -9.416,16.25 -1.3888,1.3334 -4.4438,2.4167 -9.166,3.25 v 3.082 h 35.582 v -3.082 c -5.4444,-0.3889 -8.9993,-1.2222 -10.666,-2.5 -1.6111,-1.3333 -2.416,-2.8618 -2.416,-4.584 0,-2.1667 0.9432,-5.4451 2.832,-9.834 l 4.2984,-10.0453 42.6766,-7e-4 c 2.2774,5.4167 1.2766,3.0466 3.5539,8.4633 1.7458,4.1836 5.6431,11.6131 0.918,16.25 -1.5556,1.2778 -4.584,2.0278 -9.084,2.25 v 3.082 h 44.584 v -3.082 c -4.6111,-0.2778 -8.2229,-1.5278 -10.834,-3.75 -2.5556,-2.2778 -5.4173,-7.1944 -8.584,-14.75 l -12.2539,-29.2871 c -2.8413,-7.469 -1.7631,-6.9194 -9.2991,-6.9359 l -29.7864,0.015 c -4.5975,0.4415 -7.3874,-1.3559 -10.9133,6.9338 -2.3399,5.5013 -8.7615,20.5992 -12.0262,28.2749 z m 17.0195,-21.418 31.0182,-7e-4 3.3888,8.3148 -37.9648,7e-4 z" />
      <path
         id="path375"
         style="font-size:170.667px;font-family:serif;-inkscape-font-specification:'serif, Normal';fill:#56ff67;fill-opacity:0.996078;stroke:#00ff00;stroke-width:3;stroke-linecap:round;stroke-dasharray:none;stroke-dashoffset:0;stroke-opacity:0"
         d="m -1117.9215,1062.308 c -1.0673,1.6085 -2.0996,2.9001 -3.0918,3.834 -1.3889,1.3333 -4.4438,2.4167 -9.1661,3.25 v 3.084 h 35.584 v -3.084 c -5.4444,-0.3889 -8.9993,-1.2222 -10.666,-2.5 -1.6111,-1.3333 -2.418,-2.8618 -2.418,-4.584 0,0 -1.982,-0.3906 -2.9795,-0.3312 -1.5286,0.091 -2.942,1.0624 -4.4732,1.0462 -0.9598,-0.01 -2.7894,-0.715 -2.7894,-0.715 z" />
      <path
         id="path377"
         style="font-size:170.667px;font-family:serif;-inkscape-font-specification:'serif, Normal';fill:#b556ff;fill-opacity:0.996078;stroke:#ff00ff;stroke-width:3;stroke-linecap:round;stroke-dasharray:none;stroke-dashoffset:0;stroke-opacity:0"
         d="m -1049.8491,1062.0734 c -0.1656,0.034 -1.3506,0.5867 -1.3862,0.7396 -0.4138,1.78 -0.7337,2.7255 -2.1662,4.329 -1.5555,1.2778 -4.582,2.0278 -9.082,2.25 v 3.084 h 44.582 v -3.084 c -4.6111,-0.2778 -8.2209,-1.5278 -10.832,-3.75 -0.9576,-0.8535 -2.2931,-2.5984 -3.3364,-4.1929 0,0 -4.7091,0.8794 -7.0933,0.9362 -2.8937,0.069 -5.7636,-0.8941 -8.6532,-0.725 -0.6902,0.04 -2.0327,0.4131 -2.0327,0.4131 z" />
    </g>
  </g>
</svg>
