<?xml version="1.0" encoding="UTF-8" standalone="no"?>
<!-- Created with Inkscape (http://www.inkscape.org/) -->

<svg
   width="128"
   height="128"
   viewBox="0 0 128 128"
   version="1.1"
   id="svg53352"
   xmlns="http://www.w3.org/2000/svg"
   xmlns:svg="http://www.w3.org/2000/svg">
  <defs
     id="defs53349" />
  <g
     id="layer1"
     transform="translate(-357.05085,22.237288)">
    <path
       id="path70495-5-8"
       style="font-size:170.667px;font-family:serif;-inkscape-font-specification:'serif, Normal';fill:#fffcf5;fill-opacity:0.996795;stroke:#000000;stroke-width:4;stroke-linecap:round;stroke-dasharray:none;stroke-dashoffset:0;stroke-opacity:0.989637;paint-order:stroke fill markers"
       d="m 395.66627,1.0914841 c -3.53738,10.5326919 -4.47781,20.3861989 -5.32256,30.0621429 -0.87087,9.975169 -1.64006,19.761623 -5.04814,29.908976 -2.83232,8.546189 -5.50994,7.661769 -8.03328,12.671797 -1.58378,3.144573 -3.10678,5.592622 -4.56912,7.344169 -1.85886,2.271166 -5.94757,4.11634 -12.26776,5.535691 v 5.249538 h 47.62293 V 86.61426 c -7.28683,-0.66241 -12.04471,-2.081761 -14.27538,-4.258224 -2.15628,-2.270996 -3.23359,-4.874474 -3.23359,-7.807879 0,-3.690517 2.58146,-3.492218 3.79039,-9.08766 1.88805,-8.738671 -1.81801,-20.196601 5.40813,-26.27002 14.14876,-11.891515 30.5273,-13.770655 42.42599,1.602384 4.61014,5.956233 -8.12352,9.970787 -5.08397,19.201439 1.67961,5.100742 2.70122,6.587715 0.82196,14.271438 -0.74448,3.043985 -1.94425,5.857933 -3.73872,8.098985 -2.08195,2.176463 -6.13519,3.45393 -12.15797,3.832401 v 5.249538 h 59.67111 v -5.249538 c -6.1715,-0.473174 -11.00548,-2.602285 -14.50019,-6.387335 -1.17214,-1.329586 -2.86172,-3.792752 -4.74701,-6.974354 C 458.8131,66.73308 454.47714,65.65025 451.69133,57.191197 444.93231,36.633004 463.44274,22.180763 458.39586,0.94483088 451.24817,-13.914286 404.38284,-8.7159311 395.66627,1.0914841 Z m 26.86723,5.6085918 c 2.26474,-0.851645 4.36095,2.308127 6.54144,3.4621061 2.25183,1.191792 -0.49895,5.803789 -2.25175,6.936136 -2.59498,1.676207 -7.44351,0.82354 -8.48106,-2.636692 -0.87948,-2.932895 1.82571,-6.8720921 4.19137,-7.7615501 z" />
    <path
       id="path70497-7-4"
       style="font-size:170.667px;font-family:serif;-inkscape-font-specification:'serif, Normal';fill:#57ff67;fill-opacity:1;stroke:none;stroke-width:1.50986;stroke-linecap:round;stroke-dasharray:4.52958, 4.52958;stroke-opacity:0.989637"
       d="m 376.82859,74.546965 c -1.42837,2.739741 -2.81002,4.93971 -4.13807,6.530412 -1.85889,2.270996 -5.94756,4.116339 -12.26777,5.53569 v 5.252945 h 47.62554 v -5.252945 c -7.28684,-0.662409 -12.04471,-2.08176 -14.27538,-4.258223 -2.15629,-2.270996 -3.23619,-4.874474 -3.23619,-7.807879 0,0 -2.65272,-0.665305 -3.98781,-0.56413 -2.04585,0.155 -3.93753,1.809575 -5.9869,1.781982 -1.28462,-0.01703 -3.73342,-1.217852 -3.73342,-1.217852 z" />
    <path
       id="path70499-3-8"
       style="font-size:170.667px;font-family:serif;-inkscape-font-specification:'serif, Normal';fill:#ac57ff;fill-opacity:1;stroke:none;stroke-width:1.50986;stroke-linecap:round;stroke-dasharray:4.52958, 4.52958;stroke-opacity:0.989637"
       d="m 437.67261,75.158552 c -0.75081,2.269771 -1.63729,5.197077 -3.7936,7.37354 -2.14472,2.032309 -5.85101,3.286561 -11.87383,3.665032 v 5.249538 h 59.67111 v -5.249538 c -6.17151,-0.473174 -11.00547,-2.602285 -14.50019,-6.387335 -1.2816,-1.453758 -2.85604,-4.008773 -4.74701,-6.974354 0,0 -3.08553,1.755236 -6.27664,1.851983 -3.87286,0.117527 -7.56441,-1.961788 -11.13601,-1.961788 -2.83811,0 -6.09458,1.405679 -7.34383,2.432922 z" />
  </g>
</svg>
