<?xml version="1.0" encoding="UTF-8" standalone="no"?>
<!-- Created with Inkscape (http://www.inkscape.org/) -->

<svg
   width="30.878654"
   height="34.446716"
   viewBox="0 0 30.878654 34.446716"
   version="1.1"
   id="svg4305"
   xml:space="preserve"
   xmlns="http://www.w3.org/2000/svg"
   xmlns:svg="http://www.w3.org/2000/svg"><defs
     id="defs4302" /><g
     id="layer1"
     style="display:inline"
     transform="translate(106.93343,-457.18326)"><path
       id="path1465-6-4"
       style="display:inline;fill:none;fill-opacity:1;fill-rule:evenodd;stroke:#000000;stroke-width:1.5;stroke-dasharray:none;stroke-opacity:1"
       d="m -96.905136,491.10879 v 0 c 0.729349,-0.045 1.00996,-0.59271 1.0123,-1.07525 0.003,-0.51465 -0.009,-1.88139 -0.0113,-3.69343 -6.047634,1.28255 -7.301724,-2.9476 -7.301724,-2.9476 -0.97578,-2.51279 -2.39654,-3.18769 -2.39654,-3.18769 -1.96539,-1.35761 0.15579,-1.3206 0.15579,-1.3206 2.1792,0.16529 3.31571,2.25485 3.31571,2.25485 1.92113,3.32806 5.072445,2.38473 6.312464,1.83612 0.20416,-1.40303 0.768821,-2.35762 1.3928,-2.89726 -4.819925,-0.57148 -9.881474,-2.46018 -9.840924,-10.78274 0.0115,-2.37064 0.86765,-4.30515 2.26436,-5.81704 -0.22133,-0.5504 -0.95589,-2.76201 0.24002,-5.74689 0,0 1.826799,-0.57511 5.962394,2.25575 1.734328,-0.4729 3.594148,-0.70519 5.440831,-0.70417 1.843941,0.017 3.70141,0.26735 5.433706,0.75713 4.160307,-2.79043 5.977447,-2.19757 5.977447,-2.19757 1.170749,2.99641 0.414671,5.20075 0.187998,5.74898 1.384578,1.52543 2.216463,3.46817 2.204914,5.83882 -0.04064,8.34386 -5.128206,10.15513 -9.969426,10.66889 0.77672,0.67445 1.464896,2.00317 1.455046,4.0298 -0.01414,2.90263 -0.05222,5.24514 -0.05569,5.95713 -0.0021,0.43552 0.214755,0.92523 0.787763,1.0566" /></g></svg>
